<?xml version="1.0" standalone="no"?>
<!DOCTYPE svg PUBLIC "-//W3C//DTD SVG 20010904//EN"
 "http://www.w3.org/TR/2001/REC-SVG-20010904/DTD/svg10.dtd">
<svg version="1.0" xmlns="http://www.w3.org/2000/svg"
 width="60pt" viewBox="0 0 582.000000 590.000000"
 preserveAspectRatio="xMidYMid meet">
<metadata>
Created by potrace 1.16, written by Peter Selinger 2001-2019
</metadata>
<g transform="translate(0.000000,590.000000) scale(0.100000,-0.100000)"
fill="#000000" stroke="none">
<path d="M2655 5783 c-363 -32 -750 -149 -1067 -324 -228 -126 -431 -280 -623
-473 -230 -231 -390 -455 -535 -751 -112 -227 -210 -494 -161 -439 7 8 31 67
61 148 6 16 13 27 15 24 2 -2 -9 -44 -26 -93 -43 -127 -85 -296 -109 -430 -25
-146 -43 -415 -32 -475 9 -45 9 -45 16 35 27 296 43 412 77 565 36 158 133
459 145 447 2 -1 -16 -63 -40 -137 -54 -168 -100 -368 -121 -525 -16 -122 -32
-414 -22 -405 3 3 10 79 17 170 13 189 37 343 81 518 35 144 107 356 147 439
175 358 314 558 546 787 430 422 869 644 1486 752 148 26 165 26 396 21 222
-5 253 -8 415 -41 274 -55 482 -126 707 -240 323 -165 652 -431 841 -681 141
-187 222 -314 313 -493 89 -174 130 -287 187 -514 59 -234 74 -356 72 -613 -1
-313 -19 -497 -66 -691 -105 -438 -311 -830 -614 -1171 -45 -51 -78 -93 -73
-93 5 0 66 54 136 121 69 66 126 118 126 115 0 -12 -49 -84 -108 -157 -130
-161 -343 -347 -577 -502 -66 -43 -111 -76 -100 -73 37 12 -24 -30 -130 -89
-55 -30 -96 -55 -91 -55 19 0 237 112 340 175 341 207 666 528 876 865 92 147
243 490 303 690 40 131 84 323 103 450 19 127 30 559 15 588 -11 22 -3 44 12
35 9 -5 9 -3 2 8 -6 8 -8 34 -5 59 8 70 17 37 30 -110 14 -153 7 -340 -21
-575 -10 -88 -68 -391 -90 -470 -36 -134 -163 -445 -181 -445 -5 0 -6 -4 -3
-10 3 -5 1 -10 -5 -10 -6 0 -9 -4 -6 -8 3 -5 -20 -53 -51 -108 -398 -707
-1083 -1202 -1873 -1353 -174 -34 -266 -43 -475 -51 l-200 -7 160 -1 c247 -3
489 25 719 84 54 13 101 22 104 19 3 -3 3 -5 1 -5 -3 0 -76 -18 -162 -40 -171
-43 -367 -75 -517 -86 -163 -11 -139 -26 35 -20 251 7 542 66 801 161 251 93
581 280 791 449 393 318 697 743 870 1215 51 141 131 454 93 366 -13 -29 -12
-4 2 54 8 35 14 47 20 39 6 -9 8 -2 5 19 -2 18 0 34 4 35 3 2 15 57 25 123 24
159 24 524 1 711 -68 543 -222 940 -521 1338 -489 650 -1195 1052 -1996 1136
-88 9 -404 11 -495 3z m2564 -4350 c-174 -285 -498 -617 -787 -806 -53 -35
-108 -69 -122 -76 -21 -10 -22 -9 -6 1 63 43 263 191 326 242 174 140 401 387
544 594 59 85 85 111 45 45z"/>
<path d="M2008 4301 c-472 -185 -859 -339 -862 -342 -2 -2 193 -89 435 -193
l439 -190 0 -233 0 -233 -35 -70 c-72 -144 -117 -359 -118 -570 -1 -144 12
-215 59 -330 121 -298 453 -611 882 -830 l100 -52 119 61 c401 205 706 481
843 765 72 150 85 211 84 396 -1 234 -49 452 -131 587 l-33 56 2 229 3 230
428 176 c235 97 427 179 427 182 0 6 -1735 689 -1765 695 -11 2 -406 -148
-877 -334z m1640 -829 l2 -222 -742 2 -743 3 -3 190 c-2 105 0 205 3 223 l6
32 737 -2 737 -3 3 -223z m-19 -429 c45 -76 91 -207 116 -328 25 -124 31 -315
11 -399 -32 -133 -110 -271 -231 -404 -108 -120 -352 -302 -538 -402 l-77 -42
-78 43 c-238 130 -466 309 -583 456 -162 204 -213 368 -190 607 19 192 83 400
152 496 l29 40 675 0 674 0 40 -67z"/>
<path d="M2556 2670 c-127 -39 -143 -217 -26 -277 54 -28 82 -29 135 -3 78 38
109 142 63 210 -43 63 -109 90 -172 70z"/>
<path d="M3115 2665 c-80 -28 -120 -113 -90 -191 52 -136 226 -137 280 -2 47
118 -69 236 -190 193z"/>
<path d="M2610 1920 l0 -70 295 0 295 0 0 70 0 70 -295 0 -295 0 0 -70z"/>
<path d="M4460 3693 c0 -5 -43 -287 -94 -628 -52 -341 -93 -621 -91 -623 1 -1
94 -1 206 0 l205 3 -48 615 c-26 338 -47 621 -47 628 -1 13 -131 18 -131 5z"/>
</g>
</svg>
